<svg width="159" height="27" viewBox="0 0 159 27" fill="none" xmlns="http://www.w3.org/2000/svg">
<path d="M3.68588 14.1368C3.68588 16.6483 4.25082 17.8869 6.24281 17.8869C8.23481 17.8869 9.33063 16.112 9.33063 13.5003V6.66992H12.9503V20.6666H9.33063V18.49C8.73258 19.4948 7.47113 20.9013 5.21323 20.9013C1.36173 20.9013 0 18.5243 0 13.8028V6.67085H3.68588V14.1368Z" fill="#0C1B32"/>
<path d="M20.2401 9.24602C19.2436 9.24602 18.5802 9.71456 18.5802 10.4178C18.5802 12.6946 25.5536 11.6564 25.5536 16.4781C25.5536 19.1233 23.395 20.8647 20.1076 20.8647C18.1156 20.8647 16.0895 20.2283 14.4297 19.0899L16.2229 16.5783C17.3519 17.3484 18.7467 17.9181 19.8757 17.9181C21.0378 17.9181 21.8677 17.4161 21.8677 16.5449C21.8677 14.0668 15.0609 15.3063 15.0609 10.3835C15.0609 7.90537 17.0197 6.36523 20.0754 6.36523C21.6027 6.36523 23.5285 6.90057 24.6915 7.67156L24.1265 10.518C23.0629 9.78136 21.4684 9.24602 20.2401 9.24602Z" fill="#0C1B32"/>
<path d="M33.9932 6.36523C37.945 6.36523 40.1697 8.3405 40.6675 8.74223V20.5957H37.081V18.151C36.5161 19.1892 35.2877 20.7961 32.9305 20.7961C28.9787 20.7961 26.7539 17.8494 26.7539 13.731C26.7539 9.58003 29.3449 6.36523 33.9932 6.36523ZM33.6279 17.7167C35.7533 17.7167 37.081 15.7749 37.081 12.3254V10.1488C36.7157 9.91403 35.7855 9.3787 34.1588 9.3787C31.6681 9.3787 30.4398 11.3874 30.4398 13.7653C30.4407 15.9753 31.37 17.7167 33.6279 17.7167Z" fill="#0C1B32"/>
<path d="M49.3701 20.7123C45.352 20.7123 43.0941 18.737 42.6957 18.4021C42.6957 18.4021 42.6865 1.3233 42.6865 0.302734C44.8027 0.952187 46.2749 2.25109 46.2749 2.25109L46.2822 9.12695C46.8131 7.95515 48.0424 6.28049 50.5662 6.28049C54.3514 6.28049 56.5431 9.36075 56.5431 13.4792C56.5422 17.5309 54.0184 20.7123 49.3701 20.7123ZM49.7353 9.32735C47.5768 9.32735 46.2822 11.336 46.2822 14.6176V16.8944C46.6806 17.1291 47.5437 17.6979 49.2707 17.6979C51.662 17.6979 52.8903 15.6549 52.8903 13.3781C52.8894 11.0688 51.9601 9.32735 49.7353 9.32735Z" fill="#0C1B32"/>
<path d="M60.4447 4.07207C59.2827 4.07207 58.3193 3.302 58.3193 1.98083C58.3193 0.733882 59.2827 0 60.4447 0C61.6399 0 62.5702 0.733882 62.5702 2.01794C62.5702 3.302 61.6409 4.07207 60.4447 4.07207ZM58.6184 6.5836H62.2711V20.5802H58.6184V6.5836Z" fill="#0C1B32"/>
<path d="M71.3882 20.9927C67.8045 20.8545 66.5734 19.319 66.5734 15.5011V9.70801H64.0496L64.0303 6.83278L66.5734 6.82907C66.5734 6.82907 66.5734 2.98246 66.5734 2.42578C68.7227 3.07523 70.2261 4.5597 70.2261 4.5597L70.2262 6.82907H73.5799V9.70893H70.2262V15.5689C70.2262 17.0756 70.4589 17.7455 71.3551 17.9459C72.0857 18.1129 72.6359 18.0674 73.5992 17.9663V20.8424C72.9551 20.9352 72.3111 21.028 71.3882 20.9927Z" fill="#0C1B32"/>
<path d="M85.0919 26.2006C88.492 26.2006 91.7588 25.0339 91.7588 18.8337V9.03338C89.892 7.63333 87.9586 6.79997 85.4919 6.79997C81.0918 6.79997 78.625 9.7334 78.625 13.4335C78.625 17.1336 80.7917 19.9671 84.8252 19.9671C86.6586 19.9671 88.792 19.2004 89.792 17.2337V19.1004C89.792 23.8672 87.2586 24.3672 84.9252 24.3672C83.6252 24.3672 81.8918 24.0339 80.3584 22.9005L79.225 24.4006C81.3251 26.0006 83.5252 26.2006 85.0919 26.2006ZM80.6584 13.5002C80.6584 10.8001 82.3918 8.60003 85.5586 8.60003C87.592 8.60003 88.9253 9.16671 89.792 9.8334V12.4668C89.792 16.7336 87.092 18.167 85.0252 18.167C82.0584 18.167 80.6584 16.1669 80.6584 13.5002Z" fill="#2C58FD"/>
<path d="M95.4365 20.9671H97.4366V0.0664062L95.4365 0.466421V20.9671Z" fill="#2C58FD"/>
<path d="M114.835 14.0669C114.835 9.40006 111.668 6.79997 107.668 6.79997C103.701 6.79997 100.501 9.40005 100.501 14.0335C100.501 18.667 103.701 21.2338 107.668 21.2338C111.668 21.2338 114.835 18.667 114.835 14.0669ZM112.801 14.0669C112.801 17.567 110.534 19.4671 107.634 19.4671C104.801 19.4671 102.501 17.567 102.501 14.0335C102.501 10.5334 104.801 8.60003 107.634 8.60003C110.534 8.60003 112.801 10.5334 112.801 14.0669Z" fill="#2C58FD"/>
<path d="M131.432 13.9335C131.432 9.86674 129.299 6.79997 125.165 6.79997C123.165 6.79997 120.865 7.8 119.865 10.3668V0.0664062L117.898 0.499755V18.967C118.898 19.7671 120.898 21.2005 124.432 21.2005C128.965 21.2005 131.432 18.0003 131.432 13.9335ZM129.399 13.9002C129.399 16.9336 127.632 19.4337 124.365 19.4337C122.165 19.4337 120.798 18.767 119.865 18.067V15.0336C119.865 10.2334 122.665 8.60003 124.898 8.60003C127.965 8.60003 129.399 10.8334 129.399 13.9002Z" fill="#2C58FD"/>
<path d="M133.9 14.0335C133.9 18.1003 136.1 21.2005 140.301 21.2005C142.167 21.2005 144.501 20.2338 145.501 17.767V20.9671H147.467V9.10004C146.401 8.26668 144.401 6.79997 140.967 6.79997C136.434 6.79997 133.9 10.0001 133.9 14.0335ZM135.934 14.1002C135.934 11.0334 137.7 8.60003 141.034 8.60003C143.167 8.60003 144.601 9.26672 145.501 10.0001V12.9335C145.501 17.7337 142.667 19.4004 140.501 19.4004C137.4 19.4004 135.934 17.1336 135.934 14.1002Z" fill="#2C58FD"/>
<path d="M151.135 20.9671H153.135V0.0664062L151.135 0.466421V20.9671Z" fill="#2C58FD"/>
<path d="M158.999 19.7671C158.999 18.867 158.333 18.4004 157.466 18.4004C156.633 18.4004 155.966 18.867 155.966 19.7337C155.966 20.6004 156.633 21.1338 157.466 21.1338C158.333 21.1338 158.999 20.6004 158.999 19.7671Z" fill="#2C58FD"/>
</svg>
